<?xml version="1.0" ?><!DOCTYPE svg  PUBLIC '-//W3C//DTD SVG 1.1//EN'  'http://www.w3.org/Graphics/SVG/1.1/DTD/svg11.dtd'><svg enable-background="new 0 0 128 128" height="128px" id="Layer_1" version="1.1" viewBox="0 0 128 128" width="128px" xml:space="preserve" xmlns="http://www.w3.org/2000/svg" xmlns:xlink="http://www.w3.org/1999/xlink"><path d="M112.006,42.515c-1.104,0-2-0.896-2-2v-7.471c0-0.581-0.49-1.072-1.07-1.072h-58.76c-2.247,0-5.097-1.238-6.629-2.879  l-1.778-1.904c-0.771-0.828-2.572-1.609-3.704-1.609H19.101c-0.591,0-1.071,0.48-1.071,1.07v13.865c0,1.104-0.896,2-2,2  s-2-0.896-2-2V26.65c0-2.796,2.275-5.07,5.071-5.07h18.964c2.246,0,5.096,1.237,6.628,2.879l1.778,1.904  c0.772,0.828,2.572,1.609,3.705,1.609h58.76c2.796,0,5.07,2.276,5.07,5.072v7.471C114.006,41.62,113.11,42.515,112.006,42.515z"/><path d="M108.936,106.024H19.101c-2.796,0-5.071-2.274-5.071-5.069V54.841c0-2.796,2.275-5.071,5.071-5.071h89.835  c2.796,0,5.07,2.275,5.07,5.071v46.114C114.006,103.75,111.731,106.024,108.936,106.024z M19.101,53.77  c-0.591,0-1.071,0.48-1.071,1.071v46.114c0,0.59,0.48,1.069,1.071,1.069h89.835c0.58,0,1.07-0.489,1.07-1.069V54.841  c0-0.581-0.49-1.071-1.07-1.071H19.101z"/></svg>