<svg width="751" height="285" viewBox="0 0 751 285" fill="none" xmlns="http://www.w3.org/2000/svg">
<g clip-path="url(#clip0_45_2)">
<path d="M185.965 260.552H127.192L97.8052 209.653L127.192 158.754H185.965L215.352 209.653L185.965 260.552ZM94.7783 108.845H36.005L6.61841 57.9455L36.005 7.04639H94.7783L124.165 57.9455L94.7783 108.845ZM97.0955 210.417H38.3222L8.93564 159.518L38.3222 108.619H97.0955L126.482 159.518L97.0955 210.417ZM183.909 157.929L125.136 157.929L95.7491 107.03L125.136 56.1307H183.909L213.296 107.03L183.909 157.929Z" stroke="black" stroke-width="13.2371" stroke-miterlimit="9.4" stroke-linejoin="round"/>
<path d="M337.054 101.983H310.927V176.788H290.23V101.983H264.23V85.1827H337.054V101.983ZM357.624 101.025C354.217 101.025 351.427 100.024 349.255 98.0228C347.083 95.9786 345.997 93.4872 345.997 90.5487C345.997 87.525 347.083 85.055 349.255 83.1386C351.427 81.2221 354.217 80.2639 357.624 80.2639C361.073 80.2639 363.863 81.2221 365.992 83.1386C368.164 85.055 369.25 87.525 369.25 90.5487C369.25 93.615 368.164 96.1276 365.992 98.0867C363.863 100.046 361.073 101.025 357.624 101.025ZM367.589 176.788H347.403V111.374H367.589V176.788ZM448.59 176.788H428.404V167.781H428.148C423.549 174.85 416.799 178.385 407.898 178.385C399.721 178.385 393.141 175.51 388.159 169.761C383.176 163.969 380.685 155.899 380.685 145.55C380.685 134.733 383.432 126.066 388.925 119.551C394.419 113.035 401.616 109.777 410.517 109.777C418.949 109.777 424.826 112.801 428.148 118.848H428.404V79.9445H448.59V176.788ZM428.787 144.975V140.056C428.787 135.798 427.552 132.263 425.082 129.452C422.612 126.641 419.396 125.236 415.436 125.236C410.964 125.236 407.472 127.003 404.959 130.538C402.447 134.03 401.19 138.843 401.19 144.975C401.19 150.724 402.404 155.153 404.832 158.262C407.259 161.371 410.623 162.926 414.925 162.926C419.013 162.926 422.335 161.286 424.89 158.007C427.488 154.728 428.787 150.384 428.787 144.975ZM527.866 111.374L501.292 182.026C494.903 199.018 485.279 207.514 472.417 207.514C467.52 207.514 463.495 206.961 460.344 205.853V189.756C463.027 191.331 465.944 192.119 469.096 192.119C474.291 192.119 477.911 189.67 479.955 184.773L483.405 176.66L456.831 111.374H479.189L491.39 151.172C492.157 153.642 492.753 156.559 493.179 159.923H493.434C493.817 157.453 494.52 154.579 495.542 151.299L507.871 111.374H527.866ZM556.421 169.186H556.165V176.788H535.979V79.9445H556.165V121.211H556.421C561.403 113.588 568.494 109.777 577.693 109.777C586.125 109.777 592.62 112.673 597.177 118.465C601.733 124.256 604.012 132.178 604.012 142.228C604.012 153.131 601.35 161.882 596.027 168.483C590.703 175.084 583.591 178.385 574.69 178.385C566.642 178.385 560.552 175.318 556.421 169.186ZM555.846 141.589V148.297C555.846 152.513 557.059 156.005 559.487 158.773C561.914 161.542 565.023 162.926 568.813 162.926C573.413 162.926 576.969 161.158 579.482 157.623C582.037 154.046 583.314 149 583.314 142.484C583.314 137.075 582.143 132.859 579.801 129.835C577.501 126.769 574.201 125.236 569.899 125.236C565.854 125.236 562.489 126.748 559.806 129.771C557.166 132.795 555.846 136.734 555.846 141.589ZM675.878 149.83H633.205C633.887 159.327 639.87 164.075 651.156 164.075C658.353 164.075 664.677 162.372 670.128 158.965V173.53C664.081 176.766 656.224 178.385 646.556 178.385C635.995 178.385 627.797 175.468 621.962 169.633C616.128 163.756 613.211 155.579 613.211 145.103C613.211 134.243 616.362 125.641 622.665 119.295C628.968 112.95 636.719 109.777 645.917 109.777C655.457 109.777 662.825 112.609 668.02 118.273C673.258 123.937 675.878 131.624 675.878 141.334V149.83ZM657.161 137.437C657.161 128.068 653.37 123.383 645.79 123.383C642.553 123.383 639.742 124.725 637.357 127.408C635.015 130.091 633.589 133.434 633.077 137.437H657.161ZM746.657 149.83H703.985C704.666 159.327 710.65 164.075 721.936 164.075C729.133 164.075 735.457 162.372 740.908 158.965V173.53C734.861 176.766 727.003 178.385 717.336 178.385C706.775 178.385 698.577 175.468 692.742 169.633C686.908 163.756 683.99 155.579 683.99 145.103C683.99 134.243 687.142 125.641 693.445 119.295C699.748 112.95 707.499 109.777 716.697 109.777C726.237 109.777 733.604 112.609 738.8 118.273C744.038 123.937 746.657 131.624 746.657 141.334V149.83ZM727.94 137.437C727.94 128.068 724.15 123.383 716.57 123.383C713.333 123.383 710.522 124.725 708.137 127.408C705.795 130.091 704.368 133.434 703.857 137.437H727.94Z" fill="black"/>
</g>
<defs>
<clipPath id="clip0_45_2">
<rect width="750.25" height="284.788" fill="white"/>
</clipPath>
</defs>
</svg>
