<?xml version="1.0" encoding="UTF-8"?>
<!DOCTYPE svg PUBLIC "-//W3C//DTD SVG 1.1//EN" "http://www.w3.org/Graphics/SVG/1.1/DTD/svg11.dtd">
<svg xmlns="http://www.w3.org/2000/svg" version="1.1" width="500px" height="500px" style="shape-rendering:geometricPrecision; text-rendering:geometricPrecision; image-rendering:optimizeQuality; fill-rule:evenodd; clip-rule:evenodd" xmlns:xlink="http://www.w3.org/1999/xlink">
<g><path style="opacity:1" fill="#fefefe" d="M -0.5,-0.5 C 166.167,-0.5 332.833,-0.5 499.5,-0.5C 499.5,166.167 499.5,332.833 499.5,499.5C 332.833,499.5 166.167,499.5 -0.5,499.5C -0.5,332.833 -0.5,166.167 -0.5,-0.5 Z"/></g>
<g><path style="opacity:1" fill="#0f0f0f" d="M 120.5,210.5 C 124.584,210.043 128.417,210.71 132,212.5C 135.175,220.152 132.675,224.486 124.5,225.5C 118.041,224.592 115.541,220.926 117,214.5C 117.69,212.65 118.856,211.316 120.5,210.5 Z"/></g>
<g><path style="opacity:1" fill="#040404" d="M 182.5,210.5 C 187.5,210.5 192.5,210.5 197.5,210.5C 197.5,236.5 197.5,262.5 197.5,288.5C 193.818,288.665 190.152,288.499 186.5,288C 185.33,285.815 184.164,283.649 183,281.5C 176.389,289.408 168.222,291.575 158.5,288C 150.663,283.507 146.496,276.673 146,267.5C 143.348,255.14 146.181,244.307 154.5,235C 162.806,230.385 171.139,230.385 179.5,235C 181.049,236.214 182.215,237.714 183,239.5C 182.756,229.856 182.589,220.189 182.5,210.5 Z"/></g>
<g><path style="opacity:1" fill="#808080" d="M 182.5,210.5 C 187.64,209.512 192.974,209.179 198.5,209.5C 198.831,236.005 198.498,262.339 197.5,288.5C 197.5,262.5 197.5,236.5 197.5,210.5C 192.5,210.5 187.5,210.5 182.5,210.5 Z"/></g>
<g><path style="opacity:1" fill="#ffe991" d="M 287.5,235.5 C 287.5,227.167 287.5,218.833 287.5,210.5C 282.833,210.5 278.167,210.5 273.5,210.5C 273.5,236.5 273.5,262.5 273.5,288.5C 272.502,262.339 272.169,236.005 272.5,209.5C 277.833,209.5 283.167,209.5 288.5,209.5C 288.826,218.349 288.493,227.016 287.5,235.5 Z"/></g>
<g><path style="opacity:1" fill="#ffde5b" d="M 287.5,235.5 C 287.343,236.873 287.51,238.207 288,239.5C 294.527,231.486 302.694,229.319 312.5,233C 319.746,236.966 323.913,243.132 325,251.5C 326.716,262.091 325.049,272.091 320,281.5C 309.489,291.778 298.655,292.111 287.5,282.5C 286.218,284.179 285.218,286.013 284.5,288C 280.848,288.499 277.182,288.665 273.5,288.5C 273.5,262.5 273.5,236.5 273.5,210.5C 278.167,210.5 282.833,210.5 287.5,210.5C 287.5,218.833 287.5,227.167 287.5,235.5 Z"/></g>
<g><path style="opacity:1" fill="#616161" d="M 51.5,215.5 C 69.9925,214.503 88.6592,214.17 107.5,214.5C 107.5,219.167 107.5,223.833 107.5,228.5C 100.833,228.5 94.1667,228.5 87.5,228.5C 87.8305,248.674 87.4971,268.674 86.5,288.5C 86.5,268.167 86.5,247.833 86.5,227.5C 93.1667,227.5 99.8333,227.5 106.5,227.5C 106.5,223.5 106.5,219.5 106.5,215.5C 88.1667,215.5 69.8333,215.5 51.5,215.5 Z"/></g>
<g><path style="opacity:1" fill="#000000" d="M 51.5,215.5 C 69.8333,215.5 88.1667,215.5 106.5,215.5C 106.5,219.5 106.5,223.5 106.5,227.5C 99.8333,227.5 93.1667,227.5 86.5,227.5C 86.5,247.833 86.5,268.167 86.5,288.5C 81.5,288.5 76.5,288.5 71.5,288.5C 71.5,268.167 71.5,247.833 71.5,227.5C 64.8333,227.5 58.1667,227.5 51.5,227.5C 51.5,223.5 51.5,219.5 51.5,215.5 Z"/></g>
<g><path style="opacity:1" fill="#b2b2b2" d="M 222.5,232.5 C 216.974,232.179 211.64,232.512 206.5,233.5C 205.957,233.44 205.624,233.107 205.5,232.5C 211.32,231.184 216.987,231.184 222.5,232.5 Z"/></g>
<g><path style="opacity:1" fill="#ffde5d" d="M 352.5,231.5 C 376.995,228.995 388.328,239.995 386.5,264.5C 374.5,264.5 362.5,264.5 350.5,264.5C 350.38,270.097 352.713,274.264 357.5,277C 366.434,278.48 374.934,277.313 383,273.5C 383.796,277.755 383.629,281.921 382.5,286C 369.419,291.269 356.752,290.603 344.5,284C 334.716,273.953 331.882,262.12 336,248.5C 339.045,240.29 344.545,234.623 352.5,231.5 Z"/></g>
<g><path style="opacity:1" fill="#ffde5d" d="M 413.5,231.5 C 437.995,228.995 449.328,239.995 447.5,264.5C 435.5,264.5 423.5,264.5 411.5,264.5C 411.38,270.097 413.713,274.264 418.5,277C 427.434,278.48 435.934,277.313 444,273.5C 444.796,277.755 444.629,281.921 443.5,286C 430.419,291.269 417.752,290.603 405.5,284C 395.716,273.953 392.882,262.12 397,248.5C 400.045,240.29 405.545,234.623 413.5,231.5 Z"/></g>
<g><path style="opacity:1" fill="#000000" d="M 117.5,232.5 C 122.5,232.5 127.5,232.5 132.5,232.5C 132.5,251.167 132.5,269.833 132.5,288.5C 127.5,288.5 122.5,288.5 117.5,288.5C 117.5,269.833 117.5,251.167 117.5,232.5 Z"/></g>
<g><path style="opacity:1" fill="#050505" d="M 222.5,232.5 C 227.276,244.496 231.276,256.83 234.5,269.5C 235.167,274.833 235.833,274.833 236.5,269.5C 239.962,257.113 243.629,244.78 247.5,232.5C 253.176,232.334 258.843,232.501 264.5,233C 255.73,256.641 246.563,280.141 237,303.5C 230.187,311.215 221.687,314.382 211.5,313C 209.611,309.164 208.945,304.997 209.5,300.5C 219.89,302.314 226.224,298.148 228.5,288C 221.29,269.751 213.956,251.584 206.5,233.5C 211.64,232.512 216.974,232.179 222.5,232.5 Z"/></g>
<g><path style="opacity:1" fill="#fffefc" d="M 371.5,250.5 C 371.5,251.5 371.5,252.5 371.5,253.5C 364.5,253.5 357.5,253.5 350.5,253.5C 351.678,244.576 356.678,241.076 365.5,243C 368.817,244.48 370.817,246.98 371.5,250.5 Z"/></g>
<g><path style="opacity:1" fill="#fffefc" d="M 432.5,250.5 C 432.5,251.5 432.5,252.5 432.5,253.5C 425.5,253.5 418.5,253.5 411.5,253.5C 412.678,244.576 417.678,241.076 426.5,243C 429.817,244.48 431.817,246.98 432.5,250.5 Z"/></g>
<g><path style="opacity:1" fill="#fffefc" d="M 294.5,243.5 C 301.617,242.14 306.451,244.807 309,251.5C 310.113,258.715 309.446,265.715 307,272.5C 303.692,276.327 299.526,277.494 294.5,276C 292.333,275.167 290.833,273.667 290,271.5C 288.494,264.567 288.161,257.567 289,250.5C 289.967,247.379 291.8,245.046 294.5,243.5 Z"/></g>
<g><path style="opacity:1" fill="#f9f9f9" d="M 168.5,243.5 C 175.35,242.672 180.183,245.339 183,251.5C 183.667,257.5 183.667,263.5 183,269.5C 179.54,276.812 174.04,278.979 166.5,276C 164.106,274.048 162.606,271.548 162,268.5C 161.333,262.833 161.333,257.167 162,251.5C 163.305,248.039 165.471,245.372 168.5,243.5 Z"/></g>
<g><path style="opacity:1" fill="#ffeca2" d="M 371.5,250.5 C 372.434,251.568 372.768,252.901 372.5,254.5C 364.981,254.825 357.648,254.492 350.5,253.5C 357.5,253.5 364.5,253.5 371.5,253.5C 371.5,252.5 371.5,251.5 371.5,250.5 Z"/></g>
<g><path style="opacity:1" fill="#ffeca2" d="M 432.5,250.5 C 433.434,251.568 433.768,252.901 433.5,254.5C 425.981,254.825 418.648,254.492 411.5,253.5C 418.5,253.5 425.5,253.5 432.5,253.5C 432.5,252.5 432.5,251.5 432.5,250.5 Z"/></g>
<g><path style="opacity:1" fill="#585858" d="M 234.5,269.5 C 235.167,269.5 235.833,269.5 236.5,269.5C 235.833,274.833 235.167,274.833 234.5,269.5 Z"/></g>
<g><path style="opacity:1" fill="#000000" d="M 49.5,294.5 C 99.5,294.5 149.5,294.5 199.5,294.5C 199.5,297.5 199.5,300.5 199.5,303.5C 149.5,303.5 99.5,303.5 49.5,303.5C 49.5,300.5 49.5,297.5 49.5,294.5 Z"/></g>
<g><path style="opacity:1" fill="#000000" d="M 264.5,294.5 C 264.5,297.5 264.5,300.5 264.5,303.5C 260.167,303.5 255.833,303.5 251.5,303.5C 251.5,300.5 251.5,297.5 251.5,294.5C 255.833,294.5 260.167,294.5 264.5,294.5 Z"/></g>
<g><path style="opacity:1" fill="#ffdf61" d="M 264.5,303.5 C 264.5,300.5 264.5,297.5 264.5,294.5C 326.664,293.501 388.998,293.168 451.5,293.5C 451.5,296.833 451.5,300.167 451.5,303.5C 389.167,303.5 326.833,303.5 264.5,303.5 Z"/></g>
</svg>
