<svg width="726" height="285" viewBox="0 0 726 285" fill="none" xmlns="http://www.w3.org/2000/svg">
<g clip-path="url(#clip0_38_2)">
<path d="M185.965 260.552H127.192L97.8052 209.653L127.192 158.754H185.965L215.352 209.653L185.965 260.552ZM94.7783 108.845H36.005L6.61841 57.9455L36.005 7.04639H94.7783L124.165 57.9455L94.7783 108.845ZM97.0955 210.417H38.3222L8.93564 159.518L38.3222 108.619H97.0955L126.482 159.518L97.0955 210.417ZM183.909 157.929L125.136 157.929L95.7491 107.03L125.136 56.1307H183.909L213.296 107.03L183.909 157.929Z" stroke="black" stroke-width="13.2371" stroke-miterlimit="9.4" stroke-linejoin="round"/>
<path d="M310.288 176.021C307.307 177.597 302.814 178.385 296.809 178.385C282.585 178.385 275.473 170.996 275.473 156.218V126.258H264.869V111.374H275.473V97.2562L295.595 91.5069V111.374H310.288V126.258H295.595V152.705C295.595 159.519 298.3 162.926 303.708 162.926C305.838 162.926 308.031 162.308 310.288 161.073V176.021ZM331.944 101.025C328.537 101.025 325.747 100.024 323.575 98.0228C321.403 95.9786 320.317 93.4872 320.317 90.5487C320.317 87.525 321.403 85.055 323.575 83.1386C325.747 81.2221 328.537 80.2639 331.944 80.2639C335.393 80.2639 338.183 81.2221 340.312 83.1386C342.484 85.055 343.57 87.525 343.57 90.5487C343.57 93.615 342.484 96.1276 340.312 98.0867C338.183 100.046 335.393 101.025 331.944 101.025ZM341.909 176.788H321.723V111.374H341.909V176.788ZM422.91 176.788H402.723V167.781H402.468C397.869 174.85 391.118 178.385 382.218 178.385C374.041 178.385 367.461 175.51 362.479 169.761C357.496 163.969 355.005 155.899 355.005 145.55C355.005 134.733 357.751 126.066 363.245 119.551C368.739 113.035 375.936 109.777 384.837 109.777C393.269 109.777 399.146 112.801 402.468 118.848H402.723V79.9445H422.91V176.788ZM403.107 144.975V140.056C403.107 135.798 401.872 132.263 399.402 129.452C396.932 126.641 393.716 125.236 389.756 125.236C385.284 125.236 381.792 127.003 379.279 130.538C376.767 134.03 375.51 138.843 375.51 144.975C375.51 150.724 376.724 155.153 379.151 158.262C381.579 161.371 384.943 162.926 389.245 162.926C393.333 162.926 396.655 161.286 399.21 158.007C401.808 154.728 403.107 150.384 403.107 144.975ZM502.186 111.374L475.611 182.026C469.223 199.018 459.599 207.514 446.737 207.514C441.84 207.514 437.815 206.961 434.664 205.853V189.756C437.347 191.331 440.264 192.119 443.416 192.119C448.611 192.119 452.231 189.67 454.275 184.773L457.725 176.66L431.15 111.374H453.509L465.71 151.172C466.476 153.642 467.073 156.559 467.499 159.923H467.754C468.137 157.453 468.84 154.579 469.862 151.299L482.191 111.374H502.186ZM530.74 169.186H530.485V176.788H510.299V79.9445H530.485V121.211H530.74C535.723 113.588 542.814 109.777 552.013 109.777C560.445 109.777 566.94 112.673 571.496 118.465C576.053 124.256 578.332 132.178 578.332 142.228C578.332 153.131 575.67 161.882 570.347 168.483C565.023 175.084 557.911 178.385 549.01 178.385C540.961 178.385 534.871 175.318 530.74 169.186ZM530.166 141.589V148.297C530.166 152.513 531.379 156.005 533.807 158.773C536.234 161.542 539.343 162.926 543.133 162.926C547.733 162.926 551.289 161.158 553.801 157.623C556.357 154.046 557.634 149 557.634 142.484C557.634 137.075 556.463 132.859 554.121 129.835C551.821 126.769 548.521 125.236 544.219 125.236C540.174 125.236 536.809 126.748 534.126 129.771C531.486 132.795 530.166 136.734 530.166 141.589ZM650.197 149.83H607.525C608.207 159.327 614.19 164.075 625.476 164.075C632.673 164.075 638.997 162.372 644.448 158.965V173.53C638.401 176.766 630.543 178.385 620.876 178.385C610.315 178.385 602.117 175.468 596.282 169.633C590.448 163.756 587.53 155.579 587.53 145.103C587.53 134.243 590.682 125.641 596.985 119.295C603.288 112.95 611.039 109.777 620.237 109.777C629.777 109.777 637.144 112.609 642.34 118.273C647.578 123.937 650.197 131.624 650.197 141.334V149.83ZM631.48 137.437C631.48 128.068 627.69 123.383 620.11 123.383C616.873 123.383 614.062 124.725 611.677 127.408C609.335 130.091 607.908 133.434 607.397 137.437H631.48ZM720.977 149.83H678.305C678.986 159.327 684.97 164.075 696.255 164.075C703.453 164.075 709.777 162.372 715.228 158.965V173.53C709.181 176.766 701.323 178.385 691.656 178.385C681.094 178.385 672.896 175.468 667.062 169.633C661.228 163.756 658.31 155.579 658.31 145.103C658.31 134.243 661.462 125.641 667.765 119.295C674.068 112.95 681.818 109.777 691.017 109.777C700.557 109.777 707.924 112.609 713.12 118.273C718.358 123.937 720.977 131.624 720.977 141.334V149.83ZM702.26 137.437C702.26 128.068 698.47 123.383 690.889 123.383C687.653 123.383 684.842 124.725 682.457 127.408C680.115 130.091 678.688 133.434 678.177 137.437H702.26Z" fill="black"/>
</g>
<defs>
<clipPath id="clip0_38_2">
<rect width="725.25" height="284.788" fill="white"/>
</clipPath>
</defs>
</svg>
